<?xml version="1.0" encoding="UTF-8"?><svg id="_격리_모드" xmlns="http://www.w3.org/2000/svg" viewBox="0 0 45.35 31.01"><defs><style>.cls-1{fill:#8dc63f;}.cls-1,.cls-2,.cls-3{stroke-width:0px;}.cls-2{fill:#00abc1;}.cls-3{fill:#00a3b8;}</style></defs><path class="cls-1" d="M44.6,9.59S23.33-12.44.35,10.29c0,0,12.27,24.09,36.08,8.95l-2.41-2.58s-16.78,12.35-28.93-5.82c0,0,19.36-18.38,39.51,3.58v-4.83Z"/><path class="cls-2" d="M44.19,18.54c-.54-.76-14.36-20.12-34.2-7.78l2.64,2.71s14.37-10.83,28.09,6.28c-6.11,5.27-22.56,15.79-40.72-3.35v4.65s21.24,23.05,45.35-1l-1.17-1.51Z"/><path class="cls-3" d="M14.67,16.59c-.07.07-.16.13-.26.18-.11.05-.22.08-.34.09-.06,0-.13,0-.21,0-.08,0-.16-.01-.23-.02-.07-.01-.14-.02-.2-.04-.06-.01-.1-.03-.13-.04-.04-.02-.06-.03-.07-.04-.01,0-.01-.03,0-.05l.02-.28s.01-.03.02-.04c.01,0,.03,0,.06.01.03.01.07.03.13.04.06.02.12.03.19.04.07.01.14.02.22.02.07,0,.14,0,.2-.02.08-.02.14-.04.19-.07.05-.03.08-.06.11-.1.03-.04.05-.08.06-.13.01-.05.02-.1.02-.15s-.04-.11-.1-.2c-.07-.08-.16-.16-.28-.23-.15-.08-.28-.16-.38-.23-.11-.07-.2-.14-.27-.21-.07-.07-.12-.14-.16-.22-.03-.07-.05-.16-.05-.25,0-.1.02-.2.07-.3.05-.09.11-.18.19-.25.08-.07.18-.13.29-.17.11-.04.24-.06.37-.06s.25,0,.34.03c.09.02.16.04.23.06.03.01.05.02.05.03,0,.01,0,.03,0,.04l-.05.24s-.01.05-.03.06c-.01,0-.03,0-.06,0-.04-.01-.08-.02-.13-.04-.05-.01-.1-.02-.15-.03-.05,0-.1-.01-.15-.02-.04,0-.09,0-.12,0-.15.02-.25.07-.31.14-.06.07-.09.16-.09.26,0,.06.03.13.1.21.07.08.17.15.3.23.16.1.3.18.41.26.1.07.19.15.25.22.06.07.1.14.13.21.02.07.04.15.04.23,0,.22-.08.41-.24.56Z"/><path class="cls-3" d="M17.4,16.79s-.03,0-.04,0c0,0-.01-.02-.02-.03l-.28-.68h-1.29l-.29.68s-.01.03-.02.03c0,0-.02,0-.04,0h-.37s-.06-.02-.05-.05l1.16-2.74s.01-.03.02-.04c0,0,.02,0,.05,0h.37s.04,0,.04,0c0,0,.01.02.02.04l1.16,2.74s0,.05-.05.05h-.36ZM15.92,15.69h.96l-.48-1.16-.48,1.16Z"/><path class="cls-3" d="M20.71,16.79s-.04,0-.04-.01c0,0,0-.02,0-.03v-2.05l-.86,2.04s-.01.02-.02.02c0,0-.02,0-.05,0h-.31s-.04,0-.05,0c0,0-.01,0-.02-.02l-.86-2.04v2.05s0,.02,0,.03c0,0-.02.01-.04.01h-.37s-.05-.01-.05-.04v-2.71s0-.06.01-.07c0,0,.03-.01.08-.01h.47s.03,0,.03,0c0,0,0,.02.02.04l.94,2.21.94-2.21s.01-.03.02-.04c0,0,.01,0,.03,0h.47s.07,0,.08.01c0,0,.01.03.01.07v2.71s-.01.04-.05.04h-.37Z"/><path class="cls-3" d="M23.08,16.59c-.07.07-.16.13-.26.18-.11.05-.22.08-.34.09-.06,0-.13,0-.21,0-.08,0-.15-.01-.23-.02-.07-.01-.14-.02-.2-.04-.06-.01-.1-.03-.13-.04-.04-.02-.06-.03-.07-.04-.01,0-.01-.03,0-.05l.03-.28s0-.03.02-.04c.01,0,.03,0,.06.01.03.01.08.03.14.04.06.02.12.03.19.04.07.01.14.02.21.02.07,0,.14,0,.2-.02.08-.02.14-.04.19-.07.05-.03.08-.06.11-.1.03-.04.05-.08.06-.13.01-.05.02-.1.02-.15s-.03-.11-.1-.2c-.06-.08-.16-.16-.28-.23-.15-.08-.28-.16-.38-.23-.11-.07-.2-.14-.27-.21-.07-.07-.12-.14-.16-.22-.03-.07-.05-.16-.05-.25,0-.1.02-.2.07-.3.05-.09.11-.18.19-.25.08-.07.18-.13.29-.17.11-.04.23-.06.37-.06s.25,0,.34.03c.09.02.16.04.23.06.03.01.05.02.05.03,0,.01,0,.03,0,.04l-.05.24s-.01.05-.03.06c-.01,0-.03,0-.06,0-.04-.01-.08-.02-.13-.04-.05-.01-.1-.02-.15-.03-.05,0-.1-.01-.14-.02-.05,0-.09,0-.13,0-.15.02-.25.07-.31.14-.06.07-.09.16-.09.26,0,.06.03.13.1.21.07.08.17.15.3.23.17.1.3.18.41.26.11.07.19.15.25.22.06.07.11.14.13.21.03.07.04.15.04.23,0,.22-.08.41-.23.56Z"/><path class="cls-3" d="M25.52,16.64c-.1.07-.21.13-.33.16-.12.04-.25.05-.39.05-.27,0-.51-.07-.71-.22-.13-.1-.23-.21-.29-.36-.06-.14-.09-.31-.09-.5v-1.77s0-.02.01-.04c0-.01.02-.02.03-.02h.35s.03,0,.04.01c0,.01.01.02.01.03v1.78c0,.2.05.36.16.48.11.13.27.19.48.19s.38-.06.49-.18c.11-.12.16-.29.16-.49v-1.78s0-.02.01-.03c0,0,.02-.01.03-.01h.35s.03,0,.04.02c0,.01.01.03.01.04v1.77c0,.19-.03.35-.09.5-.06.15-.15.27-.28.36Z"/><path class="cls-3" d="M28.19,16.79s-.04,0-.05-.01c0,0-.02-.02-.04-.05l-1.24-2.03v2.03s0,.04-.01.05c0,0-.02.01-.05.01h-.33s-.03,0-.05-.01c-.01,0-.02-.02-.02-.05v-2.71s0-.05.02-.06c.01,0,.03-.01.06-.01h.37s.04,0,.05,0c0,0,.03.02.04.05l1.24,2.03v-2.03s0-.04.01-.05c0,0,.02-.01.05-.01h.33s.04,0,.05.01c0,0,0,.02,0,.05v2.71s0,.05-.01.06c0,0-.03.01-.06.01h-.37Z"/><path class="cls-3" d="M31.48,16.71s-.11.04-.17.06c-.07.02-.15.03-.23.04-.08.01-.16.02-.25.03-.08,0-.16,0-.23,0-.22,0-.42-.03-.61-.1-.19-.06-.35-.16-.48-.28-.14-.13-.24-.28-.32-.46-.07-.18-.11-.39-.11-.62,0-.21.04-.41.11-.59.07-.18.17-.33.3-.46.13-.13.29-.23.48-.31.19-.07.4-.11.63-.11.16,0,.3,0,.43.02.12.02.24.04.35.07.03,0,.05.02.05.03,0,0,0,.02,0,.03l-.05.32s-.01.03-.02.04c-.01,0-.03,0-.06,0-.12-.04-.24-.06-.35-.08-.11-.02-.23-.02-.35-.02-.16,0-.3.03-.43.08-.13.05-.24.12-.33.22-.09.09-.16.21-.22.34-.05.13-.08.27-.08.44,0,.17.02.33.08.46.05.13.13.25.22.34.09.09.21.16.33.21.13.05.27.07.43.07.12,0,.22,0,.31-.01.09,0,.15-.02.19-.04v-.76h-.65s-.03,0-.04-.01c0,0-.01-.02-.01-.03v-.3s0-.03.02-.04c.01,0,.03-.01.04-.01h1.02s.06,0,.07.02c0,.01.02.04.02.08v1.24s0,.07-.03.09c-.01.02-.03.04-.06.05Z"/></svg>